<svg xmlns="http://www.w3.org/2000/svg" width="98" height="40" viewBox="0 0 98 40" aria-hidden="true" class="tw-relative tw-text-textLoud"><path fill="var(--logoSpark, #05BDBA)" d="M22.38 39.8V29.68l.21-.21h2.52l.21.2V39.8l-.2.21h-2.53l-.2-.2Zm0-29.49V.21L22.6 0h2.52l.21.2v10.11l-.2.21H22.6l-.2-.2ZM13.7 32.69h-.34l-1.74-1.74v-.35l3.25-3.26h1.84l.24.25v1.84zm-2.08-23.2v-.35l1.74-1.73h.34l3.25 3.25v1.84l-.24.25h-1.84zM.2 18.52h14.3l.21.21v2.53l-.2.21H.2l-.21-.2v-2.54l.2-.2Zm97.59.01.2.2v2.53l-.2.21h-14.5l-.21-.2 1.05-2.53.2-.21H97.8Z"/><path fill="var(--logoN, #014847)" d="M28.58 25.27h-2.52l-.2-.21v-5.92c0-1.05-.42-1.87-1.69-1.9-.65 0-1.4 0-2.2.04l-.11.12v7.65l-.21.21h-2.52l-.21-.2V14.94l.2-.21h5.68a4 4 0 0 1 4 4v6.31l-.22.21Zm12.22-4.43-.21.21h-6.52l-.21.21c0 .42.42 1.68 2.1 1.68.63 0 1.26-.2 1.48-.63l.2-.2h2.53l.2.2c-.2 1.27-1.25 3.16-4.41 3.16-3.57 0-5.26-2.52-5.26-5.47s1.69-5.48 5.05-5.48c3.37 0 5.05 2.53 5.05 5.48zm-3.16-2.1c0-.22-.2-1.7-1.89-1.7a1.78 1.78 0 0 0-1.9 1.7l.22.2h3.36zm9.04 3.36c0 .43.21.64.63.64h1.9l.2.2v2.11l-.2.21h-1.9c-1.89 0-3.57-.84-3.57-3.16v-4.63l-.2-.21h-1.48l-.21-.21v-2.1l.2-.22h1.48l.21-.2v-1.9l.21-.21h2.52l.21.2v1.9l.21.21h2.31l.21.21v2.1l-.2.22h-2.32l-.2.2v4.64Zm7.79 3.17h-2.53l-.2-.21V10.73l.2-.21h2.53l.2.21v14.32l-.2.21Zm5.67-12.22h-2.52l-.2-.21v-2.11l.2-.21h2.52l.21.21v2.1l-.2.22Zm0 12.22h-2.52l-.2-.21V14.94l.2-.2h2.52l.21.2v10.12l-.2.2Zm9.89-14.54v2.1l-.21.22h-1.9c-.41 0-.62.2-.62.63v.84l.2.21h2.1l.22.21v2.1l-.21.22h-2.1l-.21.2v7.59l-.21.2h-2.52l-.21-.2v-7.58l-.21-.21h-1.48l-.2-.21v-2.1l.2-.22h1.48l.2-.2v-.85c0-2.32 1.69-3.16 3.58-3.16h1.9l.2.2zm7.77 14.74c-.84 2.11-1.68 3.37-4.62 3.37h-1.05l-.21-.2v-2.11l.2-.21h1.06c1.05 0 1.26-.21 1.47-.84v-.21l-3.36-8.22v-2.1l.2-.22h1.9l.2.21 2.53 7.17h.2l2.53-7.17.21-.2h1.9l.2.2v2.11l-3.36 8.43Z"/></svg>